<svg width="382" height="24" viewBox="0 0 382 24" fill="none" xmlns="http://www.w3.org/2000/svg">
<path d="M7.2666 13.5234V15H2.2627V13.5234H7.2666ZM2.83008 5.04688V15H0.950195V5.04688H2.83008ZM12.4619 13.4277V10.0166C12.4619 9.76595 12.4186 9.54948 12.332 9.36719C12.2454 9.1849 12.1133 9.04362 11.9355 8.94336C11.7578 8.8431 11.5322 8.79297 11.2588 8.79297C11.0173 8.79297 10.8053 8.83398 10.623 8.91602C10.4453 8.99805 10.3086 9.11426 10.2129 9.26465C10.1172 9.41048 10.0693 9.5791 10.0693 9.77051H8.25781C8.25781 9.46517 8.33073 9.17578 8.47656 8.90234C8.6224 8.62435 8.82975 8.37826 9.09863 8.16406C9.37207 7.94531 9.69792 7.77441 10.0762 7.65137C10.459 7.52832 10.8874 7.4668 11.3613 7.4668C11.9219 7.4668 12.4209 7.5625 12.8584 7.75391C13.3005 7.94076 13.6468 8.22331 13.8975 8.60156C14.1527 8.97982 14.2803 9.45605 14.2803 10.0303V13.2568C14.2803 13.626 14.3031 13.9427 14.3486 14.207C14.3988 14.4668 14.4717 14.6924 14.5674 14.8838V15H12.7285C12.6419 14.8132 12.5758 14.5762 12.5303 14.2891C12.4847 13.9974 12.4619 13.7103 12.4619 13.4277ZM12.7148 10.4951L12.7285 11.5684H11.5869C11.3044 11.5684 11.056 11.598 10.8418 11.6572C10.6276 11.7119 10.4521 11.7939 10.3154 11.9033C10.1787 12.0081 10.0762 12.1357 10.0078 12.2861C9.93945 12.432 9.90527 12.5983 9.90527 12.7852C9.90527 12.9674 9.94629 13.1315 10.0283 13.2773C10.1149 13.4232 10.238 13.5394 10.3975 13.626C10.5615 13.708 10.7529 13.749 10.9717 13.749C11.2907 13.749 11.5687 13.6852 11.8057 13.5576C12.0426 13.4255 12.2272 13.266 12.3594 13.0791C12.4915 12.8923 12.5622 12.7145 12.5713 12.5459L13.0908 13.3252C13.027 13.512 12.9313 13.7103 12.8037 13.9199C12.6761 14.1296 12.512 14.3255 12.3115 14.5078C12.111 14.6901 11.8695 14.8405 11.5869 14.959C11.3044 15.0775 10.9762 15.1367 10.6025 15.1367C10.124 15.1367 9.69564 15.041 9.31738 14.8496C8.93913 14.6582 8.64062 14.3962 8.42188 14.0635C8.20312 13.7308 8.09375 13.3525 8.09375 12.9287C8.09375 12.5368 8.16667 12.1904 8.3125 11.8896C8.45833 11.5889 8.6748 11.3359 8.96191 11.1309C9.24902 10.9212 9.60449 10.764 10.0283 10.6592C10.4567 10.5498 10.9466 10.4951 11.498 10.4951H12.7148ZM17.9648 13.2227L19.585 7.60352H20.7334L20.3916 9.54492L18.7578 15H17.7666L17.9648 13.2227ZM17.0693 7.60352L18.2861 13.2363L18.3955 15H17.2539L15.3125 7.60352H17.0693ZM22.2373 13.1543L23.4268 7.60352H25.1768L23.249 15H22.1074L22.2373 13.1543ZM20.9111 7.60352L22.5176 13.168L22.7295 15H21.7383L20.0908 9.54492L19.7559 7.60352H20.9111Z" fill="black"/>
<path d="M345.049 2.92705C345.348 2.00574 346.652 2.00574 346.951 2.92705L348.47 7.60081C348.604 8.01284 348.987 8.2918 349.421 8.2918H354.335C355.304 8.2918 355.706 9.53141 354.923 10.1008L350.947 12.9894C350.597 13.244 350.45 13.6954 350.584 14.1074L352.102 18.7812C352.402 19.7025 351.347 20.4686 350.564 19.8992L346.588 17.0106C346.237 16.756 345.763 16.756 345.412 17.0106L341.436 19.8992C340.653 20.4686 339.598 19.7025 339.898 18.7812L341.416 14.1074C341.55 13.6954 341.403 13.244 341.053 12.9894L337.077 10.1008C336.294 9.53141 336.696 8.2918 337.665 8.2918H342.579C343.013 8.2918 343.396 8.01284 343.53 7.60081L345.049 2.92705Z" fill="#D9D9D9"/>
<path d="M364.534 12.4199L363.092 12.0713L363.646 7.04688H369.121V8.54395H365.143L364.883 10.8682C365.024 10.7816 365.229 10.695 365.498 10.6084C365.771 10.5173 366.079 10.4717 366.421 10.4717C366.895 10.4717 367.319 10.5492 367.692 10.7041C368.066 10.8545 368.383 11.0732 368.643 11.3604C368.907 11.6475 369.105 11.9984 369.237 12.4131C369.374 12.8232 369.442 13.2881 369.442 13.8076C369.442 14.2633 369.374 14.6917 369.237 15.0928C369.105 15.4893 368.902 15.8424 368.629 16.1523C368.355 16.4577 368.011 16.6992 367.597 16.877C367.182 17.0501 366.694 17.1367 366.134 17.1367C365.71 17.1367 365.302 17.0752 364.91 16.9521C364.523 16.8245 364.174 16.64 363.864 16.3984C363.554 16.1523 363.306 15.8516 363.119 15.4961C362.937 15.1406 362.837 14.7327 362.818 14.2725H364.603C364.634 14.5778 364.716 14.8376 364.849 15.0518C364.981 15.266 365.154 15.43 365.368 15.5439C365.587 15.6579 365.84 15.7148 366.127 15.7148C366.387 15.7148 366.61 15.667 366.797 15.5713C366.988 15.471 367.146 15.332 367.269 15.1543C367.392 14.9766 367.483 14.7669 367.542 14.5254C367.601 14.2839 367.631 14.0195 367.631 13.7324C367.631 13.4544 367.597 13.2015 367.528 12.9736C367.46 12.7412 367.355 12.5407 367.214 12.3721C367.073 12.2035 366.895 12.0736 366.681 11.9824C366.471 11.8913 366.225 11.8457 365.942 11.8457C365.564 11.8457 365.272 11.9027 365.067 12.0166C364.867 12.1305 364.689 12.265 364.534 12.4199ZM370.912 16.1182C370.912 15.8447 371.006 15.6146 371.192 15.4277C371.379 15.2409 371.632 15.1475 371.951 15.1475C372.27 15.1475 372.523 15.2409 372.71 15.4277C372.897 15.6146 372.99 15.8447 372.99 16.1182C372.99 16.387 372.897 16.6149 372.71 16.8018C372.523 16.984 372.27 17.0752 371.951 17.0752C371.632 17.0752 371.379 16.984 371.192 16.8018C371.006 16.6149 370.912 16.387 370.912 16.1182ZM381.31 11.1689V12.8438C381.31 13.6094 381.232 14.2633 381.077 14.8057C380.922 15.348 380.699 15.7923 380.407 16.1387C380.116 16.4805 379.767 16.7334 379.361 16.8975C378.956 17.057 378.505 17.1367 378.008 17.1367C377.611 17.1367 377.242 17.0866 376.9 16.9863C376.559 16.8815 376.251 16.722 375.978 16.5078C375.709 16.2891 375.476 16.0111 375.28 15.6738C375.089 15.3366 374.941 14.9333 374.836 14.4639C374.736 13.9945 374.686 13.4544 374.686 12.8438V11.1689C374.686 10.4033 374.763 9.75163 374.918 9.21387C375.077 8.67611 375.303 8.23633 375.595 7.89453C375.886 7.55273 376.235 7.30436 376.641 7.14941C377.046 6.98991 377.497 6.91016 377.994 6.91016C378.395 6.91016 378.764 6.96029 379.102 7.06055C379.443 7.16081 379.749 7.31803 380.018 7.53223C380.291 7.74186 380.523 8.0153 380.715 8.35254C380.906 8.68522 381.052 9.08626 381.152 9.55566C381.257 10.0205 381.31 10.5583 381.31 11.1689ZM379.505 13.0898V10.916C379.505 10.5332 379.482 10.2005 379.437 9.91797C379.396 9.63086 379.334 9.38704 379.252 9.18652C379.17 8.986 379.067 8.82422 378.944 8.70117C378.821 8.57357 378.68 8.48014 378.521 8.4209C378.361 8.36165 378.186 8.33203 377.994 8.33203C377.757 8.33203 377.545 8.37988 377.358 8.47559C377.172 8.56673 377.014 8.71257 376.887 8.91309C376.759 9.11361 376.661 9.38021 376.593 9.71289C376.529 10.041 376.497 10.4421 376.497 10.916V13.0898C376.497 13.4727 376.518 13.8076 376.559 14.0947C376.604 14.3818 376.668 14.6279 376.75 14.833C376.837 15.0381 376.939 15.2067 377.058 15.3389C377.181 15.4665 377.322 15.5622 377.481 15.626C377.641 15.6852 377.816 15.7148 378.008 15.7148C378.249 15.7148 378.461 15.667 378.644 15.5713C378.83 15.4756 378.988 15.3252 379.115 15.1201C379.243 14.9105 379.339 14.6393 379.402 14.3066C379.471 13.9694 379.505 13.5638 379.505 13.0898Z" fill="black"/>
</svg>
