<svg width="382" height="24" viewBox="0 0 382 24" fill="none" xmlns="http://www.w3.org/2000/svg">
<path d="M3.92383 15H1.77734L1.79102 13.5234H3.92383C4.5026 13.5234 4.98796 13.3958 5.37988 13.1406C5.77181 12.8809 6.06803 12.5094 6.26855 12.0264C6.46908 11.5387 6.56934 10.9554 6.56934 10.2764V9.76367C6.56934 9.23958 6.51237 8.77702 6.39844 8.37598C6.28451 7.97493 6.11589 7.6377 5.89258 7.36426C5.67383 7.09082 5.40267 6.88346 5.0791 6.74219C4.75553 6.60091 4.38411 6.53027 3.96484 6.53027H1.73633V5.04688H3.96484C4.63021 5.04688 5.23633 5.15853 5.7832 5.38184C6.33464 5.60514 6.81087 5.92643 7.21191 6.3457C7.61751 6.76042 7.92741 7.25716 8.1416 7.83594C8.36035 8.41471 8.46973 9.06185 8.46973 9.77734V10.2764C8.46973 10.9873 8.36035 11.6344 8.1416 12.2178C7.92741 12.7965 7.61751 13.2933 7.21191 13.708C6.81087 14.1227 6.33236 14.4417 5.77637 14.665C5.22038 14.8883 4.60286 15 3.92383 15ZM2.83008 5.04688V15H0.950195V5.04688H2.83008ZM13.2549 15.1367C12.6943 15.1367 12.1908 15.0456 11.7441 14.8633C11.2975 14.681 10.917 14.4281 10.6025 14.1045C10.2926 13.7764 10.0534 13.3958 9.88477 12.9629C9.7207 12.5254 9.63867 12.056 9.63867 11.5547V11.2812C9.63867 10.7116 9.7207 10.1943 9.88477 9.72949C10.0488 9.26009 10.2812 8.85677 10.582 8.51953C10.8828 8.18229 11.2428 7.92253 11.6621 7.74023C12.0814 7.55794 12.5439 7.4668 13.0498 7.4668C13.5739 7.4668 14.0365 7.55566 14.4375 7.7334C14.8385 7.90658 15.1735 8.15267 15.4424 8.47168C15.7113 8.79069 15.9141 9.1735 16.0508 9.62012C16.1875 10.0622 16.2559 10.5521 16.2559 11.0898V11.8486H10.459V10.6045H14.4785V10.4678C14.4694 10.1807 14.4147 9.91862 14.3145 9.68164C14.2142 9.4401 14.0592 9.2487 13.8496 9.10742C13.64 8.96159 13.3688 8.88867 13.0361 8.88867C12.7673 8.88867 12.5326 8.94792 12.332 9.06641C12.1361 9.18034 11.972 9.3444 11.8398 9.55859C11.7122 9.76823 11.6165 10.0189 11.5527 10.3105C11.4889 10.6022 11.457 10.9258 11.457 11.2812V11.5547C11.457 11.8646 11.498 12.1517 11.5801 12.416C11.6667 12.6803 11.792 12.9105 11.9561 13.1064C12.1247 13.2979 12.3252 13.4482 12.5576 13.5576C12.7946 13.6624 13.0635 13.7148 13.3643 13.7148C13.7425 13.7148 14.0843 13.6419 14.3896 13.4961C14.6995 13.3457 14.9684 13.1247 15.1963 12.833L16.1055 13.7764C15.9505 14.0042 15.7409 14.223 15.4766 14.4326C15.2168 14.6423 14.9023 14.8132 14.5332 14.9453C14.1641 15.0729 13.738 15.1367 13.2549 15.1367ZM21.5332 12.9766C21.5332 12.8216 21.4922 12.6826 21.4102 12.5596C21.3281 12.4365 21.1732 12.3249 20.9453 12.2246C20.722 12.1198 20.3939 12.0218 19.9609 11.9307C19.5781 11.8486 19.2249 11.7461 18.9014 11.623C18.5778 11.5 18.2998 11.3519 18.0674 11.1787C17.835 11.001 17.6527 10.7936 17.5205 10.5566C17.3929 10.3151 17.3291 10.0371 17.3291 9.72266C17.3291 9.41732 17.3952 9.13021 17.5273 8.86133C17.6595 8.58789 17.8509 8.34863 18.1016 8.14355C18.3522 7.93392 18.6576 7.76986 19.0176 7.65137C19.3776 7.52832 19.7832 7.4668 20.2344 7.4668C20.8633 7.4668 21.4033 7.56934 21.8545 7.77441C22.3102 7.97949 22.6589 8.26204 22.9004 8.62207C23.1419 8.97754 23.2627 9.37858 23.2627 9.8252H21.458C21.458 9.62923 21.4124 9.4515 21.3213 9.29199C21.2347 9.13249 21.1003 9.00488 20.918 8.90918C20.7357 8.80892 20.5055 8.75879 20.2275 8.75879C19.9769 8.75879 19.765 8.7998 19.5918 8.88184C19.4232 8.96387 19.2956 9.07096 19.209 9.20312C19.1224 9.33529 19.0791 9.48112 19.0791 9.64062C19.0791 9.75911 19.1019 9.86621 19.1475 9.96191C19.1976 10.0531 19.2773 10.1374 19.3867 10.2148C19.4961 10.2923 19.6442 10.363 19.8311 10.4268C20.0225 10.4906 20.2572 10.5521 20.5352 10.6113C21.0866 10.7207 21.5674 10.8665 21.9775 11.0488C22.3923 11.2266 22.7158 11.4635 22.9482 11.7598C23.1807 12.056 23.2969 12.4342 23.2969 12.8945C23.2969 13.2227 23.2262 13.5234 23.085 13.7969C22.9437 14.0658 22.7386 14.3005 22.4697 14.501C22.2008 14.7015 21.8796 14.8587 21.5059 14.9727C21.1322 15.082 20.7106 15.1367 20.2412 15.1367C19.5622 15.1367 18.988 15.016 18.5186 14.7744C18.0492 14.5283 17.6937 14.2184 17.4521 13.8447C17.2106 13.4665 17.0898 13.0745 17.0898 12.6689H18.8193C18.833 12.9561 18.9105 13.1862 19.0518 13.3594C19.193 13.5326 19.3708 13.6579 19.585 13.7354C19.8037 13.8083 20.0339 13.8447 20.2754 13.8447C20.5488 13.8447 20.779 13.8083 20.9658 13.7354C21.1527 13.6579 21.2939 13.5553 21.3896 13.4277C21.4854 13.2956 21.5332 13.1452 21.5332 12.9766ZM26.585 7.60352V15H24.7734V7.60352H26.585ZM24.6504 5.66895C24.6504 5.40007 24.7415 5.17676 24.9238 4.99902C25.1107 4.82129 25.3613 4.73242 25.6758 4.73242C25.9902 4.73242 26.2386 4.82129 26.4209 4.99902C26.6077 5.17676 26.7012 5.40007 26.7012 5.66895C26.7012 5.93327 26.6077 6.1543 26.4209 6.33203C26.2386 6.50977 25.9902 6.59863 25.6758 6.59863C25.3613 6.59863 25.1107 6.50977 24.9238 6.33203C24.7415 6.1543 24.6504 5.93327 24.6504 5.66895ZM33.0107 7.60352H34.6514V14.7744C34.6514 15.4443 34.5055 16.0117 34.2139 16.4766C33.9268 16.946 33.5234 17.3014 33.0039 17.543C32.4844 17.7891 31.8805 17.9121 31.1924 17.9121C30.8962 17.9121 30.5749 17.8711 30.2285 17.7891C29.8867 17.707 29.5563 17.5771 29.2373 17.3994C28.9229 17.2262 28.6608 17.0007 28.4512 16.7227L29.2646 15.6562C29.5107 15.9434 29.7887 16.1598 30.0986 16.3057C30.4085 16.4561 30.7435 16.5312 31.1035 16.5312C31.4681 16.5312 31.778 16.4629 32.0332 16.3262C32.293 16.194 32.4912 15.998 32.6279 15.7383C32.7692 15.4831 32.8398 15.1686 32.8398 14.7949V9.29199L33.0107 7.60352ZM28.0137 11.3906V11.2471C28.0137 10.682 28.082 10.1693 28.2188 9.70898C28.3555 9.24414 28.5514 8.84538 28.8066 8.5127C29.0664 8.18001 29.3786 7.92253 29.7432 7.74023C30.1123 7.55794 30.527 7.4668 30.9873 7.4668C31.4749 7.4668 31.8851 7.55566 32.2178 7.7334C32.555 7.91113 32.833 8.16406 33.0518 8.49219C33.2751 8.82031 33.4482 9.20996 33.5713 9.66113C33.6989 10.1077 33.7969 10.5999 33.8652 11.1377V11.5273C33.8014 12.0514 33.6989 12.5322 33.5576 12.9697C33.4209 13.4072 33.2386 13.79 33.0107 14.1182C32.7829 14.4417 32.5003 14.6924 32.1631 14.8701C31.8258 15.0479 31.4294 15.1367 30.9736 15.1367C30.5179 15.1367 30.1077 15.0433 29.7432 14.8564C29.3786 14.6696 29.0664 14.4076 28.8066 14.0703C28.5514 13.7331 28.3555 13.3366 28.2188 12.8809C28.082 12.4251 28.0137 11.9284 28.0137 11.3906ZM29.8184 11.2471V11.3906C29.8184 11.7096 29.8503 12.0081 29.9141 12.2861C29.9779 12.5641 30.0758 12.8102 30.208 13.0244C30.3402 13.234 30.5065 13.3981 30.707 13.5166C30.9076 13.6351 31.1468 13.6943 31.4248 13.6943C31.7985 13.6943 32.1038 13.6169 32.3408 13.4619C32.5824 13.3024 32.7646 13.0859 32.8877 12.8125C33.0153 12.5345 33.0973 12.2223 33.1338 11.876V10.8027C33.111 10.5293 33.0609 10.2764 32.9834 10.0439C32.9105 9.81152 32.8079 9.611 32.6758 9.44238C32.5436 9.27376 32.375 9.1416 32.1699 9.0459C31.9648 8.9502 31.721 8.90234 31.4385 8.90234C31.165 8.90234 30.9258 8.96387 30.7207 9.08691C30.5156 9.2054 30.347 9.37174 30.2148 9.58594C30.0827 9.80013 29.9824 10.0485 29.9141 10.3311C29.8503 10.6136 29.8184 10.9189 29.8184 11.2471ZM38.0488 9.18262V15H36.2441V7.60352H37.9395L38.0488 9.18262ZM37.7617 11.0352H37.2285C37.2331 10.4974 37.306 10.0098 37.4473 9.57227C37.5885 9.13477 37.7868 8.75879 38.042 8.44434C38.3018 8.12988 38.6094 7.88835 38.9648 7.71973C39.3203 7.55111 39.7168 7.4668 40.1543 7.4668C40.5098 7.4668 40.8311 7.51693 41.1182 7.61719C41.4053 7.71745 41.6514 7.87695 41.8564 8.0957C42.0661 8.31445 42.2256 8.60156 42.335 8.95703C42.4489 9.30794 42.5059 9.74089 42.5059 10.2559V15H40.6875V10.2422C40.6875 9.90495 40.6374 9.63835 40.5371 9.44238C40.4414 9.24642 40.3001 9.10742 40.1133 9.02539C39.931 8.94336 39.7054 8.90234 39.4365 8.90234C39.1585 8.90234 38.9147 8.95931 38.7051 9.07324C38.5 9.18262 38.3268 9.33529 38.1855 9.53125C38.0488 9.72721 37.944 9.9528 37.8711 10.208C37.7982 10.4632 37.7617 10.7389 37.7617 11.0352Z" fill="black"/>
<path d="M345.049 2.92705C345.348 2.00574 346.652 2.00574 346.951 2.92705L348.47 7.60081C348.604 8.01284 348.987 8.2918 349.421 8.2918H354.335C355.304 8.2918 355.706 9.53141 354.923 10.1008L350.947 12.9894C350.597 13.244 350.45 13.6954 350.584 14.1074L352.102 18.7812C352.402 19.7025 351.347 20.4686 350.564 19.8992L346.588 17.0106C346.237 16.756 345.763 16.756 345.412 17.0106L341.436 19.8992C340.653 20.4686 339.598 19.7025 339.898 18.7812L341.416 14.1074C341.55 13.6954 341.403 13.244 341.053 12.9894L337.077 10.1008C336.294 9.53141 336.696 8.2918 337.665 8.2918H342.579C343.013 8.2918 343.396 8.01284 343.53 7.60081L345.049 2.92705Z" fill="#D9D9D9"/>
<path d="M364.534 12.4199L363.092 12.0713L363.646 7.04688H369.121V8.54395H365.143L364.883 10.8682C365.024 10.7816 365.229 10.695 365.498 10.6084C365.771 10.5173 366.079 10.4717 366.421 10.4717C366.895 10.4717 367.319 10.5492 367.692 10.7041C368.066 10.8545 368.383 11.0732 368.643 11.3604C368.907 11.6475 369.105 11.9984 369.237 12.4131C369.374 12.8232 369.442 13.2881 369.442 13.8076C369.442 14.2633 369.374 14.6917 369.237 15.0928C369.105 15.4893 368.902 15.8424 368.629 16.1523C368.355 16.4577 368.011 16.6992 367.597 16.877C367.182 17.0501 366.694 17.1367 366.134 17.1367C365.71 17.1367 365.302 17.0752 364.91 16.9521C364.523 16.8245 364.174 16.64 363.864 16.3984C363.554 16.1523 363.306 15.8516 363.119 15.4961C362.937 15.1406 362.837 14.7327 362.818 14.2725H364.603C364.634 14.5778 364.716 14.8376 364.849 15.0518C364.981 15.266 365.154 15.43 365.368 15.5439C365.587 15.6579 365.84 15.7148 366.127 15.7148C366.387 15.7148 366.61 15.667 366.797 15.5713C366.988 15.471 367.146 15.332 367.269 15.1543C367.392 14.9766 367.483 14.7669 367.542 14.5254C367.601 14.2839 367.631 14.0195 367.631 13.7324C367.631 13.4544 367.597 13.2015 367.528 12.9736C367.46 12.7412 367.355 12.5407 367.214 12.3721C367.073 12.2035 366.895 12.0736 366.681 11.9824C366.471 11.8913 366.225 11.8457 365.942 11.8457C365.564 11.8457 365.272 11.9027 365.067 12.0166C364.867 12.1305 364.689 12.265 364.534 12.4199ZM370.912 16.1182C370.912 15.8447 371.006 15.6146 371.192 15.4277C371.379 15.2409 371.632 15.1475 371.951 15.1475C372.27 15.1475 372.523 15.2409 372.71 15.4277C372.897 15.6146 372.99 15.8447 372.99 16.1182C372.99 16.387 372.897 16.6149 372.71 16.8018C372.523 16.984 372.27 17.0752 371.951 17.0752C371.632 17.0752 371.379 16.984 371.192 16.8018C371.006 16.6149 370.912 16.387 370.912 16.1182ZM381.31 11.1689V12.8438C381.31 13.6094 381.232 14.2633 381.077 14.8057C380.922 15.348 380.699 15.7923 380.407 16.1387C380.116 16.4805 379.767 16.7334 379.361 16.8975C378.956 17.057 378.505 17.1367 378.008 17.1367C377.611 17.1367 377.242 17.0866 376.9 16.9863C376.559 16.8815 376.251 16.722 375.978 16.5078C375.709 16.2891 375.476 16.0111 375.28 15.6738C375.089 15.3366 374.941 14.9333 374.836 14.4639C374.736 13.9945 374.686 13.4544 374.686 12.8438V11.1689C374.686 10.4033 374.763 9.75163 374.918 9.21387C375.077 8.67611 375.303 8.23633 375.595 7.89453C375.886 7.55273 376.235 7.30436 376.641 7.14941C377.046 6.98991 377.497 6.91016 377.994 6.91016C378.395 6.91016 378.764 6.96029 379.102 7.06055C379.443 7.16081 379.749 7.31803 380.018 7.53223C380.291 7.74186 380.523 8.0153 380.715 8.35254C380.906 8.68522 381.052 9.08626 381.152 9.55566C381.257 10.0205 381.31 10.5583 381.31 11.1689ZM379.505 13.0898V10.916C379.505 10.5332 379.482 10.2005 379.437 9.91797C379.396 9.63086 379.334 9.38704 379.252 9.18652C379.17 8.986 379.067 8.82422 378.944 8.70117C378.821 8.57357 378.68 8.48014 378.521 8.4209C378.361 8.36165 378.186 8.33203 377.994 8.33203C377.757 8.33203 377.545 8.37988 377.358 8.47559C377.172 8.56673 377.014 8.71257 376.887 8.91309C376.759 9.11361 376.661 9.38021 376.593 9.71289C376.529 10.041 376.497 10.4421 376.497 10.916V13.0898C376.497 13.4727 376.518 13.8076 376.559 14.0947C376.604 14.3818 376.668 14.6279 376.75 14.833C376.837 15.0381 376.939 15.2067 377.058 15.3389C377.181 15.4665 377.322 15.5622 377.481 15.626C377.641 15.6852 377.816 15.7148 378.008 15.7148C378.249 15.7148 378.461 15.667 378.644 15.5713C378.83 15.4756 378.988 15.3252 379.115 15.1201C379.243 14.9105 379.339 14.6393 379.402 14.3066C379.471 13.9694 379.505 13.5638 379.505 13.0898Z" fill="black"/>
</svg>
